<?xml version="1.0" encoding="UTF-8" standalone="no"?>
<!-- icon666.com - MILLIONS vector ICONS FREE -->

<svg
   version="1.1"
   id="Capa_1"
   x="0px"
   y="0px"
   viewBox="0 0 512 512"
   style="enable-background:new 0 0 512 512;"
   xml:space="preserve"
   sodipodi:docname="email_ssqnp718px8v.svg"
   inkscape:version="1.4 (86a8ad7, 2024-10-11)"
   xmlns:inkscape="http://www.inkscape.org/namespaces/inkscape"
   xmlns:sodipodi="http://sodipodi.sourceforge.net/DTD/sodipodi-0.dtd"
   xmlns="http://www.w3.org/2000/svg"
   xmlns:svg="http://www.w3.org/2000/svg"><defs
     id="defs4" /><sodipodi:namedview
     id="namedview4"
     pagecolor="#ffffff"
     bordercolor="#000000"
     borderopacity="0.25"
     inkscape:showpageshadow="2"
     inkscape:pageopacity="0.0"
     inkscape:pagecheckerboard="0"
     inkscape:deskcolor="#d1d1d1"
     inkscape:zoom="1.5917969"
     inkscape:cx="255.68589"
     inkscape:cy="256"
     inkscape:window-width="1920"
     inkscape:window-height="1017"
     inkscape:window-x="-8"
     inkscape:window-y="-8"
     inkscape:window-maximized="1"
     inkscape:current-layer="Capa_1" /><g
     id="g2"
     style="fill:#ffffff;fill-opacity:1"><g
       id="g1"
       style="fill:#ffffff;fill-opacity:1"><path
         d="M452,68H60C26.916,68,0,94.916,0,128v256c0,33.084,26.916,60,60,60h392c33.084,0,60-26.916,60-60V128 C512,94.916,485.084,68,452,68z M472,384c0,11.028-8.972,20-20,20H60c-11.028,0-20-8.972-20-20V128c0-11.028,8.972-20,20-20h392 c11.028,0,20,8.972,20,20V384z"
         id="path1"
         style="fill:#ffffff;fill-opacity:1" /></g></g><g
     id="g4"
     style="fill:#ffffff;fill-opacity:1"><g
       id="g3"
       style="fill:#ffffff;fill-opacity:1"><polygon
         points="468.604,92.937 256,251.074 43.396,92.937 19.522,125.032 256,300.926 492.478,125.032 "
         id="polygon2"
         style="fill:#ffffff;fill-opacity:1" /></g></g></svg>
