<?xml version="1.0" encoding="UTF-8" standalone="no"?>
<!-- icon666.com - MILLIONS vector ICONS FREE -->

<svg
   version="1.1"
   id="Capa_1"
   x="0px"
   y="0px"
   viewBox="0 0 262144 192512"
   xml:space="preserve"
   width="262144"
   height="192512"
   xmlns="http://www.w3.org/2000/svg"
   xmlns:svg="http://www.w3.org/2000/svg"><defs
     id="defs4" /><g
     id="g2"
     style="display:inline"
     transform="translate(0,-34816)"><g
       id="g1"><path
         d="M 452,68 H 60 C 26.916,68 0,94.916 0,128 v 256 c 0,33.084 26.916,60 60,60 h 392 c 33.084,0 60,-26.916 60,-60 V 128 C 512,94.916 485.084,68 452,68 Z m 20,316 c 0,11.028 -8.972,20 -20,20 H 60 C 48.972,404 40,395.028 40,384 V 128 c 0,-11.028 8.972,-20 20,-20 h 392 c 11.028,0 20,8.972 20,20 z"
         id="path1"
         style="fill:none;fill-opacity:1;stroke:none" /></g></g><g
     id="g4"
     style="display:inline"
     transform="translate(0,-34816)"><g
       id="g3"><polygon
         points="468.604,92.937 256,251.074 43.396,92.937 19.522,125.032 256,300.926 492.478,125.032 "
         id="polygon2"
         style="fill:none;stroke:none" /></g></g><path
     style="fill:#ffffff;stroke-width:2.51288"
     d="m 52.142331,-34372.847 c -15.171597,-1.953 -30.129853,-10.75 -39.559923,-23.264 -7.149336,-9.488 -10.8564974,-19.301 -11.95619713,-31.649 -0.82986298,-9.317 -0.82986298,-255.163 0,-264.48 1.09969973,-12.348 4.80686113,-22.161 11.95619713,-31.649 9.66955,-12.832 24.29527,-21.291 40.279697,-23.295 7.258465,-0.91 399.017325,-0.91 406.275795,0 16.09355,2.018 30.54804,10.38 40.2906,23.31 7.13814,9.473 10.84615,19.292 11.94529,31.634 0.82986,9.317 0.82986,255.163 0,264.48 -1.0997,12.348 -4.80686,22.161 -11.9562,31.649 -9.66955,12.832 -24.29527,21.291 -40.27969,23.295 -6.37073,0.799 -400.782798,0.769 -406.995569,-0.03 z m 408.793719,-40.935 c 4.35672,-2.296 7.52165,-5.565 9.5261,-9.84 l 1.64583,-3.509 0.1647,-124.581 c 0.1397,-105.667 0.0333,-124.503 -0.7006,-124.073 -0.4759,0.278 -49.07676,36.375 -108.00189,80.214 -58.92513,43.839 -107.27461,79.742 -107.44328,79.784 -0.16866,0.04 -48.60781,-35.843 -107.64256,-79.745 -59.034734,-43.902 -107.6927,-80.035 -108.128808,-80.297 -0.637573,-0.382 -0.760655,23.934 -0.628221,124.111 l 0.164704,124.587 1.645822,3.509 c 2.529396,5.394 7.319904,9.519 13.117368,11.297 0.863803,0.264 91.893005,0.434 202.287115,0.376 l 200.71657,-0.105 z m -107.20004,-223.338 95.22312,-70.826 -96.27167,-0.159 c -52.94941,-0.09 -139.77129,-0.09 -192.9375,0 l -96.665856,0.159 96.429536,71.72 c 90.41366,67.245 96.50968,71.664 97.71438,70.825 0.70667,-0.492 44.13527,-32.765 96.50799,-71.719 z"
     id="path4" /></svg>
