<?xml version="1.0" encoding="UTF-8" standalone="no"?>
<!-- Created with Inkscape (http://www.inkscape.org/) -->

<svg
   width="100.11062mm"
   height="39.498249mm"
   viewBox="0 0 100.11062 39.498249"
   version="1.1"
   id="svg1"
   xml:space="preserve"
   sodipodi:docname="logo-text-black.svg"
   inkscape:version="1.4 (86a8ad7, 2024-10-11)"
   xmlns:inkscape="http://www.inkscape.org/namespaces/inkscape"
   xmlns:sodipodi="http://sodipodi.sourceforge.net/DTD/sodipodi-0.dtd"
   xmlns="http://www.w3.org/2000/svg"
   xmlns:svg="http://www.w3.org/2000/svg"><sodipodi:namedview
     id="namedview1"
     pagecolor="#ffffff"
     bordercolor="#000000"
     borderopacity="0.25"
     inkscape:showpageshadow="2"
     inkscape:pageopacity="0.0"
     inkscape:pagecheckerboard="0"
     inkscape:deskcolor="#d1d1d1"
     inkscape:document-units="mm"
     inkscape:zoom="2.3469039"
     inkscape:cx="188.97237"
     inkscape:cy="74.779372"
     inkscape:window-width="1920"
     inkscape:window-height="1017"
     inkscape:window-x="-8"
     inkscape:window-y="-8"
     inkscape:window-maximized="1"
     inkscape:current-layer="svg1" /><defs
     id="defs1" /><g
     id="layer1"
     transform="matrix(0.91143293,0,0,0.91143293,-2.9049049,-73.857823)"><text
       xml:space="preserve"
       style="font-style:normal;font-variant:normal;font-weight:500;font-stretch:normal;font-size:4.23545px;line-height:4.41193px;font-family:Montserrat;-inkscape-font-specification:'Montserrat Medium';text-align:start;letter-spacing:1.52741px;writing-mode:lr-tb;direction:ltr;text-anchor:start;fill:#131516;stroke-width:0.30015"
       x="47.700222"
       y="101.6739"
       id="text1"><tspan
         id="tspan1"
         style="font-size:4.23545px;line-height:4.41193px;letter-spacing:1.52741px;stroke-width:0.30015"
         x="47.700222"
         y="101.6739">ЦЕНТР РАЗВИТИЯ</tspan></text><text
       xml:space="preserve"
       style="font-style:normal;font-variant:normal;font-weight:normal;font-stretch:normal;font-size:7.37266px;line-height:7.37266px;font-family:DFGothic-EB;-inkscape-font-specification:DFGothic-EB;text-align:start;letter-spacing:-0.584547px;writing-mode:lr-tb;direction:ltr;text-anchor:start;fill:#131516;stroke-width:0.298556"
       x="47.82346"
       y="109.09705"
       id="text2"><tspan
         id="tspan2"
         style="font-size:7.37266px;line-height:7.37266px;letter-spacing:-0.584547px;stroke-width:0.298556"
         x="47.82346"
         y="109.09705">ЖАВОРОНОК</tspan></text><g
       id="g410"
       transform="matrix(0.02718821,0,0,0.02718821,-361.49092,42.237143)"
       style="clip-rule:evenodd;fill-rule:evenodd;image-rendering:optimizeQuality;shape-rendering:geometricPrecision;text-rendering:geometricPrecision"><path
         class="fil6"
         d="m 13795,1627 c 9,-1 52,105 59,115 7,9 40,49 53,40 8,-5 -2,-42 -13,-78 -12,-41 -25,-88 -14,-130 2,-7 5,-11 9,-6 4,5 6,12 9,19 3,5 9,27 11,34 16,45 33,96 55,138 22,41 45,83 71,121 7,11 15,22 24,32 24,28 58,56 87,79 18,14 48,33 63,47 26,25 23,44 34,77 7,21 13,41 21,62 12,31 30,60 57,81 9,7 24,16 34,21 8,3 20,10 31,11 10,1 15,-3 4,-10 -6,-4 -12,-8 -19,-11 -29,-24 -44,-46 -54,-65 -7,-10 -20,-46 -23,-56 -7,-25 -6,-31 -11,-50 -9,-40 -35,-68 -68,-91 -16,-11 -32,-22 -46,-34 -18,-15 -37,-28 -54,-44 -62,-58 -102,-126 -136,-202 -27,-60 -45,-119 -63,-182 -9,-32 -32,-74 -53,-25 -43,101 7,127 11,209 -9,-2 -22,-35 -26,-43 -11,-22 -18,-44 -30,-67 -6,-11 -25,-50 -41,-31 -15,18 -16,45 -14,68 3,34 11,58 21,90 -2,-1 -11,-12 -17,-17 -9,-8 -22,-21 -29,-3 -5,12 -6,28 -6,42 -1,40 28,86 31,101 -1,-1 -4,-2 -6,-3 -7,-5 -23,-11 -29,-1 -16,28 -12,70 -6,101 1,5 2,9 3,13 1,5 2,8 3,13 6,26 18,46 31,68 8,14 2,14 -2,24 -27,73 37,112 43,175 5,59 18,95 53,145 9,13 18,26 28,37 36,40 65,75 118,96 4,2 8,3 12,2 1,-8 -16,-21 -31,-33 -26,-21 -44,-41 -66,-67 -44,-52 -79,-112 -86,-180 -2,-20 5,-31 -5,-50 -17,-31 -55,-89 -23,-137 1,-7 -10,-22 -13,-28 -24,-39 -54,-109 -35,-148 15,0 25,21 33,31 3,4 7,8 10,11 11,12 26,6 20,-7 -21,-44 -42,-93 -50,-141 -1,-4 0,-16 2,-18 4,-2 7,1 8,3 9,10 52,61 63,66 6,3 14,4 18,-1 3,-3 2,-12 -4,-21 -20,-29 -33,-48 -43,-88 -10,-39 -19,-93 -12,-105 z"
         id="path384"
         style="fill:#131516;fill-opacity:1" /><path
         class="fil6"
         d="m 15249,2771 c -1,6 -19,16 -25,18 -28,13 -82,16 -114,10 -12,-2 -67,-18 -75,-10 -8,8 3,14 11,20 4,3 9,5 12,9 36,43 -98,15 -123,5 -18,-7 -31,-14 -47,-24 -6,-4 -11,-5 -17,0 -1,5 0,10 1,13 8,10 34,35 33,47 -2,37 -113,-15 -118,-17 -4,-2 -7,-3 -11,-5 -6,-2 -15,-9 -22,-11 -10,-2 -15,8 -8,16 3,4 4,7 7,10 4,5 12,16 2,21 -38,20 -140,-46 -164,-71 -10,-10 -10,-19 -29,-6 -2,1 0,0 -2,2 0,0 -3,1 -3,1 -30,12 -119,8 -140,-14 -3,-3 -5,-6 -10,-6 -26,0 -33,3 -57,-6 -40,-15 -129,-79 -147,-102 -2,-2 -6,0 -8,2 39,58 123,120 190,128 11,1 18,1 27,6 44,24 112,34 161,21 10,-3 6,-2 21,8 27,18 161,92 188,53 8,-11 4,-17 3,-27 l 33,16 c 11,7 48,18 62,21 26,5 66,1 55,-36 -3,-9 -9,-19 -10,-23 2,0 18,10 23,12 21,9 29,10 52,16 8,2 22,3 31,4 18,2 48,0 62,-6 21,-9 19,-31 12,-49 52,2 68,20 128,4 22,-6 57,-31 50,-59 -2,-7 -12,-15 -18,-18 -17,-8 -46,-9 -69,-11 -23,-2 -70,-11 -89,-19 -62,-23 -124,-68 -161,-107 -14,-16 -32,-30 -48,-44 -7,-6 -12,-12 -19,-18 -15,-14 -53,-45 -73,-55 -5,-2 -8,-4 -12,-7 -19,-9 -39,-11 -60,-11 -52,0 -75,1 -126,-13 -12,-3 -23,-6 -34,-10 -4,-1 -11,-4 -14,-4 -15,-2 -14,11 -9,22 2,6 13,15 18,18 13,7 27,11 41,14 36,7 63,10 101,7 37,-4 56,-2 89,16 21,11 45,32 62,47 68,59 95,103 178,151 20,12 44,18 66,25 8,2 14,4 21,5 36,7 68,11 105,12 7,0 14,1 17,5 z"
         id="path385"
         style="fill:#131516;fill-opacity:1" /><path
         class="fil6"
         d="m 14107,2792 c 18,-28 39,-59 59,-86 5,-7 15,-13 8,-22 -7,0 -8,2 -12,4 -9,5 -18,16 -24,24 -5,6 -10,13 -15,18 -10,11 -40,62 -48,80 -19,40 -59,158 -127,105 -5,-3 -13,-13 -16,-16 -12,-19 -16,-12 -34,-11 -43,2 -108,-46 -95,-78 1,-2 3,-7 -5,-8 -30,-4 -89,-16 -83,-58 0,-3 4,-8 6,-11 2,-2 7,-6 3,-11 -3,-4 -6,-4 -11,-5 -4,0 -9,-1 -13,-2 -13,-2 -56,-21 -65,-30 -26,-27 59,-20 64,-20 30,0 84,-5 113,-10 35,-6 66,-12 99,-26 16,-7 65,-26 76,-35 4,-3 2,-9 -2,-7 -9,3 -18,7 -27,10 -33,9 -65,18 -99,22 -48,7 -115,9 -153,10 -27,1 -104,-7 -113,26 -2,6 -1,12 3,20 7,15 22,37 37,45 17,9 16,6 29,11 14,5 22,5 35,5 -1,5 -3,4 -4,8 -4,10 0,21 2,29 5,17 36,37 51,43 12,4 23,8 37,9 1,11 -1,15 3,24 16,38 63,62 103,57 9,-1 13,-3 24,-3 2,4 3,9 5,13 6,12 17,19 29,26 46,25 93,-10 111,-53 12,-30 33,-69 50,-96 z"
         id="path386"
         style="fill:#131516;fill-opacity:1" /><path
         class="fil6"
         d="m 14646,2316 c 7,5 38,2 45,7 -25,7 -46,14 -68,26 -4,2 -8,4 -12,6 -12,7 -23,14 -33,24 -37,38 -63,69 -97,111 -22,26 -36,34 -60,53 -15,11 -54,33 -72,42 -31,17 -74,31 -107,44 -29,11 -85,26 -117,35 -40,11 -77,20 -115,36 -40,17 -52,19 -91,42 -5,3 -9,3 -9,10 9,0 19,-7 27,-11 37,-17 59,-25 98,-35 24,-8 86,-20 112,-23 103,-23 238,-59 317,-132 38,-35 66,-76 96,-120 9,-13 17,-23 25,-33 11,-13 20,-25 35,-33 5,-3 10,-6 16,-8 15,-7 52,-19 67,-20 7,-2 15,-2 19,-7 3,-5 3,-6 -7,-11 -5,-3 -65,-21 -66,-1 z"
         id="path387"
         style="fill:#131516;fill-opacity:1" /><path
         class="fil6"
         d="m 13936,2714 c 0,0 25,-44 36,-63 19,-31 46,-69 68,-97 45,-56 86,-107 141,-154 22,-19 42,-30 68,-44 9,-5 49,-21 60,-24 16,-4 31,-5 49,-7 4,0 26,-1 28,0 18,0 30,-15 15,-24 -8,-5 -38,-7 -50,-6 -23,3 -47,7 -69,15 -22,7 -39,14 -60,25 -35,16 -83,57 -97,71 -9,9 -19,19 -28,28 -50,55 -82,103 -114,167 -9,18 -18,38 -28,55 -3,6 -26,52 -24,56 0,1 1,1 2,1 z"
         id="path388"
         style="fill:#131516;fill-opacity:1" /><path
         class="fil6"
         d="m 14506,1720 c -1,0 -2,1 -3,2 -13,10 -39,12 -56,12 -20,-1 -38,-7 -48,-27 -3,-6 -1,-13 -2,-20 -11,-6 -70,10 -96,-12 -4,-3 -10,-13 -8,-19 7,-21 40,-13 56,-13 5,0 8,1 12,-1 0,-4 0,-4 -3,-6 -14,-7 -41,-10 -54,-8 -19,3 -40,15 -32,38 9,26 47,38 71,38 13,0 23,-2 35,-1 1,12 2,15 7,23 17,29 71,35 100,22 23,-10 13,-13 29,-1 34,26 84,13 121,1 11,-4 15,-2 25,1 24,6 49,12 74,10 24,-2 53,-9 71,-26 2,-2 6,-7 3,-7 -4,-1 -13,7 -31,13 -19,6 -62,7 -81,4 -9,-1 -16,-4 -25,-7 -5,-2 -18,-7 -23,-7 -6,0 -6,1 -11,3 -32,15 -81,21 -112,2 -7,-4 -15,-11 -19,-12 z"
         id="path389"
         style="fill:#131516;fill-opacity:1" /><path
         class="fil6"
         d="m 13982,1869 c -3,-2 -7,-7 -8,-5 1,5 14,25 17,30 20,30 41,58 64,86 14,17 26,32 41,47 8,8 16,16 23,22 4,4 21,21 23,25 2,3 2,6 2,9 l 19,63 c 12,41 50,117 84,145 9,7 14,12 26,10 9,-1 12,-4 7,-13 -2,-4 -6,-7 -16,-15 -34,-25 -69,-104 -82,-146 -6,-17 -6,-39 -17,-54 -11,-14 -34,-34 -56,-53 -22,-20 -40,-40 -59,-62 -23,-27 -47,-56 -64,-84 -2,-3 -4,-4 -5,-7 z"
         id="path390"
         style="fill:#131516;fill-opacity:1" /><path
         class="fil6"
         d="m 14435,2299 c 7,1 45,-38 53,-46 18,-17 40,-27 67,-28 31,-2 48,7 67,18 7,4 13,8 19,13 1,1 3,2 4,3 9,8 41,10 52,12 -1,2 0,2 -4,4 -2,1 -3,1 -5,2 -4,2 -6,3 -10,4 -5,2 -16,7 -19,10 0,9 5,7 11,5 9,-2 24,-10 44,-13 6,-1 40,-6 30,-13 0,0 -2,-1 -3,-2 -3,-2 -24,-6 -30,-8 -16,-3 -43,-7 -53,-10 -11,-3 -24,-17 -33,-24 -6,-5 -16,-12 -23,-15 -56,-22 -109,-11 -151,36 -6,6 -12,13 -18,21 -3,4 -5,8 -6,13 -2,10 -2,16 8,18 z"
         id="path391"
         style="fill:#131516;fill-opacity:1" /><path
         class="fil6"
         d="m 14468,1778 c -1,-5 -1,-6 -7,-6 -9,-1 -10,5 -15,10 -6,5 -23,30 -30,37 -15,17 -33,38 -54,52 l -47,32 c -12,8 -40,21 -54,25 -16,5 -23,4 -33,7 -3,1 -10,1 -11,3 -3,10 39,3 44,2 11,-2 5,0 22,-4 7,-2 15,-3 22,-5 11,-5 22,-8 38,-15 14,-6 46,-25 57,-35 3,-2 5,-5 7,-7 9,-6 33,-30 40,-39 9,-13 27,-39 22,-57 z"
         id="path392"
         style="fill:#131516;fill-opacity:1" /><path
         class="fil6"
         d="m 14503,2537 c -1,13 12,17 25,23 11,5 24,10 35,13 37,10 46,13 82,12 19,-1 39,-4 58,-6 18,-2 36,-8 55,-9 10,-1 21,0 31,1 24,1 53,12 73,24 l 30,18 c 5,3 5,5 11,3 0,-6 -9,-11 -15,-14 -18,-12 -27,-18 -46,-29 l -32,-13 c -6,-2 -18,-5 -24,-6 -39,-4 -75,4 -111,5 -23,1 -32,3 -58,1 -21,-2 -33,-3 -51,-8 -7,-2 -16,-5 -23,-7 l -16,-6 c -10,-6 -16,-8 -22,-2 z"
         id="path393"
         style="fill:#131516;fill-opacity:1" /><path
         class="fil6"
         d="m 13901,2072 c -1,0 0,1 0,1 2,7 3,5 14,21 24,27 30,32 52,51 38,34 38,31 77,53 7,4 10,4 12,8 -11,0 -46,-5 -52,3 1,1 1,2 2,2 13,2 64,9 79,11 17,2 18,5 34,3 3,-8 -13,-17 -21,-22 l -32,-15 c -23,-9 -69,-37 -89,-50 -25,-16 -45,-35 -66,-56 -4,-4 -7,-8 -9,-9 z"
         id="path394"
         style="fill:#131516;fill-opacity:1" /><path
         class="fil6"
         d="m 14494,2614 c -29,7 -31,18 -52,41 -4,4 -13,13 -14,17 0,1 1,0 2,0 14,-8 25,-22 40,-25 1,20 -6,87 20,90 0,-4 -4,-16 -5,-21 -6,-23 4,-74 8,-101 z"
         id="path395"
         style="fill:#131516;fill-opacity:1" /><path
         class="fil6"
         d="m 14284,2429 c -21,11 -29,23 -35,29 -11,13 -20,31 -25,47 -1,5 -3,15 -2,20 1,5 4,11 9,13 30,14 46,17 77,16 14,-1 68,-5 71,-24 -3,1 -5,0 -7,1 -5,2 -1,2 -20,8 -8,2 -33,3 -43,2 -12,-2 -52,-10 -57,-17 -8,-12 -1,-39 6,-52 5,-10 17,-30 27,-41 2,-2 3,-3 0,-1 z"
         id="path396"
         style="fill:#131516;fill-opacity:1" /><path
         class="fil6"
         d="m 14624,2661 c -4,-5 -13,-14 -16,-20 -2,-5 -12,-19 -20,-13 -6,5 -6,11 -6,20 l 5,41 c 2,8 11,33 20,27 0,0 3,1 -1,-6 -4,-8 -9,-44 -8,-53 3,1 4,5 7,8 24,28 57,61 85,84 8,6 27,26 38,20 0,-3 -1,-3 -3,-4 -31,-22 -78,-73 -102,-102 z"
         id="path397"
         style="fill:#131516;fill-opacity:1" /><path
         class="fil6"
         d="m 14742,2625 c -2,0 -3,-2 -6,3 0,2 -1,4 0,5 6,11 21,23 31,31 3,2 4,4 7,7 4,4 9,8 14,12 10,8 19,14 30,24 16,14 50,37 72,36 14,2 34,-6 2,-15 -16,-4 -48,-22 -63,-32 -9,-6 -33,-27 -43,-35 -15,-12 -29,-25 -44,-37 z"
         id="path398"
         style="fill:#131516;fill-opacity:1" /><path
         class="fil6"
         d="m 14390,1946 c 0,7 13,19 17,24 7,8 14,17 22,27 35,43 63,83 96,126 4,6 8,9 8,8 3,-4 -3,-17 -13,-34 -28,-47 -91,-125 -102,-142 -3,-4 -6,-9 -10,-11 -4,-2 -15,0 -19,2 z"
         id="path399"
         style="fill:#131516;fill-opacity:1" /><path
         class="fil6"
         d="m 14095,2329 c -9,9 -42,11 -61,31 -3,3 7,1 11,-1 20,-7 43,-13 62,-22 10,-4 35,-13 18,-19 -10,-7 -24,-7 -35,-8 -40,-2 -100,-17 -128,-25 -9,-2 -14,-3 -15,-2 -1,0 -3,1 -3,2 0,1 1,2 2,4 4,2 15,6 29,10 21,6 97,27 120,30 z"
         id="path400"
         style="fill:#131516;fill-opacity:1" /><path
         class="fil6"
         d="m 14021,2056 c -21,-17 -43,-35 -65,-55 -26,-24 -48,-48 -70,-73 -2,-2 -3,-3 -4,-4 -4,-2 -4,-1 -3,2 45,61 104,121 165,165 6,5 24,16 32,12 2,-11 -45,-40 -56,-48 z"
         id="path401"
         style="fill:#131516;fill-opacity:1" /><path
         class="fil6"
         d="m 14471,1880 c -1,8 14,13 23,19 33,20 100,64 128,87 5,4 33,27 44,34 4,3 7,3 2,-2 -9,-10 -41,-37 -43,-38 -14,-14 -125,-105 -138,-105 -8,0 -13,2 -17,6 z"
         id="path402"
         style="fill:#131516;fill-opacity:1" /><path
         class="fil6"
         d="m 14529,1805 c 27,10 66,20 96,29 29,8 67,26 92,31 4,1 7,1 9,0 -1,-2 -11,-7 -18,-9 -42,-17 -158,-67 -179,-65 -4,0 -6,3 -6,7 -1,5 2,5 7,7 z"
         id="path403"
         style="fill:#131516;fill-opacity:1" /><path
         class="fil6"
         d="m 14396,2120 c -8,-16 -71,-159 -88,-137 -6,8 4,18 9,24 11,14 78,121 79,118 1,-2 1,-4 0,-5 z"
         id="path404"
         style="fill:#131516;fill-opacity:1" /><path
         class="fil6"
         d="m 14027,2769 c 10,-12 18,-19 31,-29 2,-2 8,-5 9,-7 2,-2 3,-9 -1,-10 l -2,1 c -1,1 -1,1 -2,1 -60,40 -65,69 -104,119 -7,9 0,9 1,9 8,0 65,-82 67,-84 z"
         id="path405"
         style="fill:#131516;fill-opacity:1" /><path
         class="fil6"
         d="m 13773,2706 c 0,4 2,3 6,4 1,3 0,3 5,8 13,1 23,-3 34,-6 11,-3 22,-5 33,-8 10,-3 21,-7 31,-10 4,-1 33,-6 26,-13 -2,-2 -12,2 -15,3 -14,4 -37,8 -51,10 -12,2 -24,3 -36,5 l -32,7 z"
         id="path406"
         style="fill:#131516;fill-opacity:1" /><path
         class="fil6"
         d="m 14491,2352 c -2,-1 -6,-2 -9,-3 -8,-3 -14,-11 -18,-18 -1,-1 -11,-36 -21,-18 -6,10 3,25 14,32 5,4 9,7 15,9 4,2 18,6 19,-2 z"
         id="path407"
         style="fill:#131516;fill-opacity:1" /><path
         class="fil6"
         d="m 14440,2379 c 4,0 5,-2 5,-6 -10,-3 -12,-4 -20,-12 -8,-7 -3,-17 -9,-25 -3,-4 -9,-2 -11,0 -5,5 0,19 3,25 6,11 20,19 33,18 z"
         id="path408"
         style="fill:#131516;fill-opacity:1" /><path
         class="fil6"
         d="m 13820,2783 c -2,1 -1,2 2,3 19,1 31,-4 44,-12 10,-6 10,-5 19,-9 8,-3 15,-6 10,-13 -9,2 -16,7 -24,11 -13,7 -34,16 -47,18 -2,0 -4,2 -4,2 z"
         id="path409"
         style="fill:#131516;fill-opacity:1" /><path
         class="fil6"
         d="m 14610,2266 c -2,-4 -8,-15 -13,-16 -7,-2 -34,2 -20,16 7,7 28,9 33,0 z"
         id="path410"
         style="fill:#131516;fill-opacity:1" /></g></g></svg>
