<?xml version="1.0" encoding="UTF-8" standalone="no"?>
<!-- Uploaded to: SVG Repo, www.svgrepo.com, Generator: SVG Repo Mixer Tools -->

<svg
   width="600"
   height="600"
   viewBox="0 0 18 18"
   fill="none"
   version="1.1"
   id="svg1"
   sodipodi:docname="phone-white-icon.svg"
   inkscape:version="1.4 (86a8ad7, 2024-10-11)"
   xmlns:inkscape="http://www.inkscape.org/namespaces/inkscape"
   xmlns:sodipodi="http://sodipodi.sourceforge.net/DTD/sodipodi-0.dtd"
   xmlns="http://www.w3.org/2000/svg"
   xmlns:svg="http://www.w3.org/2000/svg">
  <sodipodi:namedview
     id="namedview1"
     pagecolor="#ffffff"
     bordercolor="#000000"
     borderopacity="0.25"
     inkscape:showpageshadow="2"
     inkscape:pageopacity="0.0"
     inkscape:pagecheckerboard="0"
     inkscape:deskcolor="#d1d1d1"
     inkscape:zoom="1.3583333"
     inkscape:cx="300.00001"
     inkscape:cy="305.88958"
     inkscape:window-width="1920"
     inkscape:window-height="1017"
     inkscape:window-x="-8"
     inkscape:window-y="-8"
     inkscape:window-maximized="1"
     inkscape:current-layer="svg1" />
  <defs
     id="defs1" />
  <path
     d="M 1.05,3.2583333 C 1.05,10.82002 7.1799712,16.95 14.741667,16.95 c 0.341143,0 0.679371,-0.01245 1.014331,-0.03702 0.384339,-0.02818 0.576464,-0.04222 0.751452,-0.142923 0.144867,-0.08339 0.282225,-0.231257 0.354835,-0.381865 C 16.95,16.20641 16.95,15.994322 16.95,15.570233 v -2.488615 c 0,-0.35669 0,-0.535035 -0.05874,-0.687851 C 16.8395,12.258705 16.75523,12.138483 16.64605,12.043613 16.522467,11.9362 16.35481,11.87525 16.019673,11.75335 L 13.187,10.723295 c -0.389992,-0.141775 -0.585032,-0.212707 -0.770002,-0.200693 -0.163151,0.0106 -0.32012,0.06634 -0.453503,0.160855 -0.151227,0.107148 -0.257933,0.285051 -0.471435,0.640946 l -0.725393,1.20893 C 8.4259217,11.473245 6.528345,9.573195 5.4666667,7.2333333 L 6.6756232,6.5079577 C 7.0314475,6.2944648 7.2093597,6.187714 7.3165433,6.0364697 7.41106,5.903104 7.4667983,5.7461268 7.4773983,5.5830017 7.4894117,5.3980052 7.41848,5.2030182 7.276705,4.8130442 L 6.2466412,1.9803355 C 6.12475,1.6451547 6.0638088,1.4775598 5.9564043,1.353955 5.8615255,1.2447662 5.7412862,1.1605492 5.606251,1.1086975 5.4533813,1.05 5.275054,1.05 4.9183993,1.05 H 2.4297755 c -0.4241148,0 -0.6361767,0 -0.8179932,0.087671 C 1.4611917,1.2102897 1.313357,1.3476922 1.229935,1.4925765 1.1292173,1.6675118 1.1151458,1.859681 1.0870028,2.2440282 1.0624815,2.5789263 1.05,2.9171723 1.05,3.2583333 Z"
     stroke="#000000"
     stroke-width="1.76667"
     stroke-linecap="round"
     stroke-linejoin="round"
     id="path1"
     style="fill:#ffffff;fill-opacity:1;stroke:none" />
</svg>
