<?xml version="1.0" encoding="UTF-8" standalone="no"?>
<!-- Uploaded to: SVG Repo, www.svgrepo.com, Generator: SVG Repo Mixer Tools -->

<svg
   width="600"
   height="600"
   viewBox="0 0 18 18"
   fill="none"
   version="1.1"
   id="svg1"
   sodipodi:docname="phone-black-icon.svg"
   inkscape:version="1.4 (86a8ad7, 2024-10-11)"
   xmlns:inkscape="http://www.inkscape.org/namespaces/inkscape"
   xmlns:sodipodi="http://sodipodi.sourceforge.net/DTD/sodipodi-0.dtd"
   xmlns="http://www.w3.org/2000/svg"
   xmlns:svg="http://www.w3.org/2000/svg">
  <sodipodi:namedview
     id="namedview1"
     pagecolor="#ffffff"
     bordercolor="#000000"
     borderopacity="0.25"
     inkscape:showpageshadow="2"
     inkscape:pageopacity="0.0"
     inkscape:pagecheckerboard="0"
     inkscape:deskcolor="#d1d1d1"
     inkscape:zoom="1.3583333"
     inkscape:cx="300.00001"
     inkscape:cy="309.57056"
     inkscape:window-width="1920"
     inkscape:window-height="1017"
     inkscape:window-x="-8"
     inkscape:window-y="-8"
     inkscape:window-maximized="1"
     inkscape:current-layer="svg1" />
  <defs
     id="defs1" />
  <path
     d="M 1.05,3.2583334 C 1.05,10.82002 7.1799711,16.95 14.741666,16.95 c 0.341144,0 0.679373,-0.01245 1.014333,-0.037 0.384337,-0.02819 0.576462,-0.04223 0.751451,-0.142923 0.144866,-0.08338 0.282225,-0.231257 0.354835,-0.381865 C 16.95,16.20641 16.95,15.994321 16.95,15.570234 v -2.488615 c 0,-0.35669 0,-0.535035 -0.05873,-0.687853 C 16.8395,12.258705 16.755227,12.138484 16.646047,12.043614 16.522466,11.9362 16.35481,11.87525 16.019674,11.75335 L 13.187,10.723295 c -0.389991,-0.141775 -0.585031,-0.212706 -0.770001,-0.200694 -0.163153,0.0106 -0.32012,0.06635 -0.453504,0.160855 -0.151226,0.107149 -0.257934,0.285053 -0.471435,0.640948 l -0.725394,1.20893 C 8.4259216,11.473245 6.528345,9.573195 5.4666666,7.2333334 L 6.6756231,6.5079576 C 7.0314475,6.2944649 7.2093596,6.187714 7.3165434,6.0364696 7.41106,5.903104 7.4667984,5.7461269 7.4773984,5.5830016 7.4894116,5.3980051 7.41848,5.2030181 7.276705,4.8130441 L 6.2466411,1.9803355 C 6.12475,1.6451547 6.0638089,1.4775598 5.9564044,1.353955 5.8615255,1.2447662 5.7412861,1.1605492 5.606251,1.1086975 5.4533814,1.05 5.275054,1.05 4.9183994,1.05 H 2.4297755 c -0.4241149,0 -0.6361767,0 -0.8179932,0.087671 C 1.4611917,1.2102897 1.313357,1.3476922 1.229935,1.4925765 1.1292173,1.6675118 1.1151458,1.859681 1.0870028,2.2440281 1.0624815,2.5789264 1.05,2.9171724 1.05,3.2583334 Z"
     stroke="#000000"
     stroke-width="1.76666"
     stroke-linecap="round"
     stroke-linejoin="round"
     id="path1"
     style="fill:#131516;fill-opacity:1;stroke:none" />
</svg>
