<?xml version="1.0" encoding="UTF-8" standalone="no"?>
<!-- icon666.com - MILLIONS vector ICONS FREE -->

<svg
   version="1.1"
   id="Layer_1"
   x="0px"
   y="0px"
   viewBox="0 0 262144 262144"
   xml:space="preserve"
   width="262144"
   height="262144"
   xmlns="http://www.w3.org/2000/svg"
   xmlns:svg="http://www.w3.org/2000/svg"><defs
     id="defs2" /><g
     id="g2"
     style="fill:#ff00ff;fill-opacity:1"><g
       id="g1"
       style="fill:#ff00ff;fill-opacity:1"><path
         d="M 256,0 C 161.896,0 85.333,76.563 85.333,170.667 c 0,28.25 7.063,56.26 20.49,81.104 L 246.667,506.5 c 1.875,3.396 5.448,5.5 9.333,5.5 3.885,0 7.458,-2.104 9.333,-5.5 L 406.229,251.687 c 13.375,-24.76 20.438,-52.771 20.438,-81.021 C 426.667,76.563 350.104,0 256,0 Z m 0,256 c -47.052,0 -85.333,-38.281 -85.333,-85.333 0,-47.052 38.281,-85.333 85.333,-85.333 47.052,0 85.333,38.281 85.333,85.333 C 341.333,217.719 303.052,256 256,256 Z"
         id="path1"
         style="fill:#ff00ff;fill-opacity:1" /></g></g></svg>
