<?xml version="1.0" encoding="UTF-8" standalone="no"?>
<svg
   width="132"
   height="132"
   viewBox="0 0 132 132"
   fill="none"
   version="1.1"
   id="svg2"
   sodipodi:docname="rutubeWhite.svg"
   inkscape:version="1.4 (86a8ad7, 2024-10-11)"
   xmlns:inkscape="http://www.inkscape.org/namespaces/inkscape"
   xmlns:sodipodi="http://sodipodi.sourceforge.net/DTD/sodipodi-0.dtd"
   xmlns="http://www.w3.org/2000/svg"
   xmlns:svg="http://www.w3.org/2000/svg">
  <sodipodi:namedview
     id="namedview1"
     pagecolor="#ffffff"
     bordercolor="#000000"
     borderopacity="0.25"
     inkscape:showpageshadow="2"
     inkscape:pageopacity="0.0"
     inkscape:pagecheckerboard="0"
     inkscape:deskcolor="#d1d1d1"
     inkscape:zoom="6.1742424"
     inkscape:cx="65.919018"
     inkscape:cy="66"
     inkscape:window-width="1920"
     inkscape:window-height="1017"
     inkscape:window-x="-8"
     inkscape:window-y="-8"
     inkscape:window-maximized="1"
     inkscape:current-layer="svg2" />
  <g
     clip-path="url(#clip0_519_1997)"
     id="g2">
    <rect
       width="132"
       height="132"
       fill="white"
       id="rect1"
       style="fill:none;stroke:none"
       x="0"
       y="0" />
    <path
       d="m 132,66.0001 c 36.451,0 66,-29.5493 66,-66.0000694824 C 198,-36.4508 168.451,-66 132,-66 95.5492,-66 66,-36.4508 66,3.05176e-5 66,36.4508 95.5492,66.0001 132,66.0001 Z"
       fill="#ED143B"
       id="path1"
       style="fill:#ffffff" />
    <path
       d="M 81.5361,62.9865 H 42.5386 V 47.5547 h 38.9975 c 2.2779,0 3.8618,0.3971 4.6567,1.0904 0.7949,0.6934 1.2873,1.9794 1.2873,3.858 v 5.541 c 0,1.9793 -0.4924,3.2653 -1.2873,3.9587 -0.7949,0.6933 -2.3788,0.9897 -4.6567,0.9897 z M 84.2115,33.0059 H 26 V 99 H 42.5386 V 77.5294 H 73.0177 L 87.4801,99 H 106 L 90.0546,77.4287 c 5.8787,-0.8712 8.5184,-2.6727 10.6954,-5.6418 2.177,-2.969 3.269,-7.7159 3.269,-14.051 v -4.9483 c 0,-3.7573 -0.398,-6.7263 -1.092,-9.0019 -0.694,-2.2757 -1.88,-4.255 -3.565,-6.0329 -1.7796,-1.683 -3.7609,-2.8683 -6.1397,-3.6624 C 90.8435,33.3971 87.8716,33 84.2115,33 Z"
       fill="#100943"
       id="path2"
       style="fill:#ffffff;stroke:#131516;stroke-width:3.8;stroke-dasharray:none;stroke-opacity:1" />
  </g>
  <defs
     id="defs2">
    <clipPath
       id="clip0_519_1997">
      <rect
         width="132"
         height="132"
         rx="32"
         fill="#ffffff"
         id="rect2"
         x="0"
         y="0" />
    </clipPath>
  </defs>
  <path
     id="rect3"
     style="fill:#ffffff;fill-opacity:0.808729;stroke-width:7.87391"
     d="M 31.669922,0 C 14.124986,0 0,14.124986 0,31.669922 V 100.33008 C 0,117.87501 14.124986,132 31.669922,132 H 100.33008 C 117.87501,132 132,117.87501 132,100.33008 V 31.669922 C 132,14.124986 117.87501,0 100.33008,0 Z m 1.488281,2.8632812 h 65.683594 c 16.783823,0 30.294923,13.5110988 30.294923,30.2949218 v 65.683594 c 0,16.783823 -13.5111,30.294923 -30.294923,30.294923 H 33.158203 c -16.783823,0 -30.2949218,-13.5111 -30.2949218,-30.294923 V 33.158203 C 2.8632812,16.37438 16.37438,2.8632812 33.158203,2.8632812 Z" />
</svg>
