<?xml version="1.0" encoding="UTF-8" standalone="no"?>
<svg
   viewBox="0 0 47.999997 47.999997"
   width="42.666664"
   height="42.666664"
   version="1.1"
   id="svg1"
   xmlns="http://www.w3.org/2000/svg"
   xmlns:svg="http://www.w3.org/2000/svg">
  <defs
     id="defs1" />
  <path
     d="M 24,-3.4744264e-8 C 37.255,-3.4744264e-8 48,10.745 48,24 48,37.255 37.255,48 24,48 10.745,48 -3.4744264e-8,37.255 -3.4744264e-8,24 -3.4744264e-8,10.745 10.745,-3.4744264e-8 24,-3.4744264e-8 Z M 32.279,33.783 c 0.441,-1.354 2.51,-14.853 2.765,-17.513 0.077,-0.806 -0.177,-1.341 -0.676,-1.58 -0.603,-0.29 -1.496,-0.145 -2.533,0.229 -1.421,0.512 -19.59,8.227 -20.64,8.673 -0.995,0.423 -1.937,0.884 -1.937,1.552 0,0.47 0.279,0.734 1.047,1.008 0.799,0.285 2.812,0.895 4.001,1.223 1.145,0.316 2.448,0.042 3.178,-0.412 0.774,-0.481 9.71,-6.46 10.351,-6.984 0.641,-0.524 1.152,0.147 0.628,0.672 -0.524,0.524 -6.657,6.477 -7.466,7.301 -0.982,1.001 -0.285,2.038 0.374,2.453 0.752,0.474 6.163,4.103 6.978,4.685 0.815,0.582 1.641,0.846 2.398,0.846 0.757,0 1.155,-0.996 1.532,-2.153 z"
     id="path1"
     style="fill:#ffffff" />
</svg>
