<?xml version="1.0" encoding="UTF-8" standalone="no"?>
<svg
   width="97.999992"
   height="98"
   viewBox="0 0 97.999992 98"
   fill="none"
   version="1.1"
   id="svg1"
   xmlns="http://www.w3.org/2000/svg"
   xmlns:svg="http://www.w3.org/2000/svg">
  <circle
     style="fill:#ffffff;fill-opacity:1;stroke:none;stroke-width:20.328;stroke-opacity:1"
     id="path4"
     cx="49"
     cy="49"
     r="49" />
  <defs
     id="defs1" />
  <path
     style="display:inline;fill:#131516;fill-opacity:1;stroke:none;stroke-width:0;stroke-dasharray:none;stroke-opacity:1"
     d="M 48.895704,71.510627 C 43.889849,71.18231 38.790608,69.824505 34.846624,67.769698 29.078984,64.764769 24.595133,60.150567 21.452984,53.986684 18.393757,47.98547 16.753223,41.123176 16.268605,32.300618 l -0.06571,-1.196319 h 5.139072 5.139073 l 0.07494,1.07362 c 0.19378,2.776247 0.361192,4.409684 0.626376,6.111531 1.53395,9.844267 5.869116,17.159214 12.097156,20.412145 0.975072,0.509283 3.268475,1.359759 3.666745,1.359759 0.07916,0 0.121232,-5.024791 0.121232,-14.478527 V 31.104299 h 4.846626 4.846626 v 8.261243 8.261242 l 0.804894,-0.107841 c 1.981547,-0.265489 4.161582,-1.171623 6.245221,-2.595835 1.32212,-0.903697 3.681175,-3.147568 4.838466,-4.602222 1.818729,-2.286045 3.556906,-5.384937 4.481385,-7.989593 l 0.413727,-1.165644 4.812262,-0.03211 4.812263,-0.03211 -0.08374,0.446369 c -0.311752,1.66178 -1.303307,4.37303 -2.367293,6.472986 -2.526652,4.986772 -6.812287,9.706459 -11.34065,12.489238 -0.663021,0.407442 -1.205254,0.776853 -1.204965,0.820915 2.91e-4,0.04406 0.676671,0.422607 1.503068,0.841208 4.59003,2.325022 8.907447,6.246974 11.940279,10.846575 0.944335,1.432179 2.307743,4.010209 2.880973,5.447546 0.343553,0.861437 1.098465,2.985363 1.098465,3.090502 0,0.02108 -2.390193,0.03833 -5.311542,0.03833 h -5.311547 l -0.642075,-1.572622 c -0.637465,-1.561329 -1.788213,-3.620037 -2.843059,-5.08628 -0.968752,-1.346571 -3.732026,-4.006838 -5.094237,-4.904339 -2.765392,-1.821995 -5.718787,-2.924065 -8.742331,-3.262234 l -0.88957,-0.09949 v 7.462484 7.462484 l -1.625767,-0.02212 c -0.894172,-0.01216 -1.901841,-0.04022 -2.239264,-0.06235 z"
     id="path2" />
</svg>
