<?xml version="1.0" encoding="UTF-8" standalone="no"?>
<!-- Uploaded to: SVG Repo, www.svgrepo.com, Generator: SVG Repo Mixer Tools -->

<svg
   fill="#000000"
   width="623.54382"
   height="628.72827"
   viewBox="0 0 199.53402 201.19305"
   id="Flat"
   version="1.1"
   sodipodi:docname="wa-white-icon.svg"
   inkscape:version="1.4 (86a8ad7, 2024-10-11)"
   xmlns:inkscape="http://www.inkscape.org/namespaces/inkscape"
   xmlns:sodipodi="http://sodipodi.sourceforge.net/DTD/sodipodi-0.dtd"
   xmlns="http://www.w3.org/2000/svg"
   xmlns:svg="http://www.w3.org/2000/svg">
  <sodipodi:namedview
     id="namedview1"
     pagecolor="#ffffff"
     bordercolor="#000000"
     borderopacity="0.25"
     inkscape:showpageshadow="2"
     inkscape:pageopacity="0.0"
     inkscape:pagecheckerboard="0"
     inkscape:deskcolor="#d1d1d1"
     inkscape:zoom="1.2962675"
     inkscape:cx="312.0498"
     inkscape:cy="314.36414"
     inkscape:window-width="1920"
     inkscape:window-height="1017"
     inkscape:window-x="-8"
     inkscape:window-y="-8"
     inkscape:window-maximized="1"
     inkscape:current-layer="Flat" />
  <defs
     id="defs2" />
  <g
     opacity="0.2"
     id="g1"
     style="display:none;opacity:1;fill:#a80000;fill-opacity:1"
     transform="translate(-26.134693,-28.210766)">
    <path
       d="M 128.00049,32 C 93.499332,32.008128 61.654584,50.524924 44.581618,80.505647 27.508653,110.48637 27.832213,147.32188 45.4292,176.99807 l 4.9e-4,-6.1e-4 -14.184806,47.60569 -0.161394,0.46659 47.91944,-14.49904 v 0.001 c 54.49229,32.33369 124.80909,3.94257 141.57525,-57.16172 C 237.34434,92.305699 191.36355,32.004162 128.00049,32 Z m 24.11328,151.9999 C 107.84216,184.06285 71.937117,148.15786 72,103.88625 72.049666,88.4613 84.574975,75.986875 100,76 v 0 c 2.47346,-8.5e-5 4.75729,1.325287 5.98438,3.4729 l 11.6914,20.45923 c 1.43539,2.51235 1.40254,5.60392 -0.0859,8.08521 l -9.38916,15.64843 v 0 c 4.83037,10.71969 13.41371,19.3032 24.1333,24.13379 l 4.9e-4,-1.2e-4 15.64795,-9.389 c 2.48129,-1.48874 5.57309,-1.52159 8.08545,-0.0859 l 20.459,11.69092 c 2.14771,1.22709 3.47316,3.51099 3.47309,5.98454 -0.0441,15.40133 -12.48521,27.89314 -27.88623,27.9999 z"
       id="path1"
       style="fill:#a80000;fill-opacity:1;stroke:none;stroke-width:0.096;stroke-dasharray:none" />
  </g>
  <path
     d="M 97.468255,0.81500089 A 104.0281,104.0281 0 0 0 6.2792553,154.856 l -8.54687,29.915 a 15.99944,15.99944 0 0 0 19.7793797,19.78035 l 29.916,-8.54688 A 104.00728,104.00728 0 1 0 97.468255,0.81500089 Z m 0,191.99999911 a 87.86347,87.86347 0 0 1 -44.90772,-12.30566 8.00324,8.00324 0 0 0 -6.28759,-0.81641 l -33.15674,9.47363 9.47265,-33.15625 a 7.99679,7.99679 0 0 0 -0.8164,-6.28613 88.01132,88.01132 0 1 1 75.6958,43.09082 z M 149.96386,119.88434 129.50439,108.193 a 16.01881,16.01881 0 0 0 -16.17041,0.17285 l -11.85107,7.11133 A 40.03607,40.03607 0 0 1 86.806635,100.80042 l 7.11084,-11.851559 a 16.01674,16.01674 0 0 0 0.17187,-16.16992 l -11.69092,-20.46094 a 14.92643,14.92643 0 0 0 -12.93066,-7.503 36.01385,36.01385 0 0 0 -36,35.876 87.99949,87.99949 0 0 0 87.999005,88.123999 c 0.042,0 0.0947,0.0234 0.126,0 a 36.01427,36.01427 0 0 0 35.875,-36 14.9238,14.9238 0 0 0 -7.50391,-12.93064 z M 121.57031,152.815 h -0.10254 A 72.00036,72.00036 0 0 1 49.467765,80.712461 19.99027,19.99027 0 0 1 68.831045,60.824791 l 11.36621,19.8916 -9.38867,15.64844 a 7.99972,7.99972 0 0 0 -0.43652,7.397459 56.03179,56.03179 0 0 0 28.14892,28.14843 7.99583,7.99583 0 0 0 7.397005,-0.43652 l 15.64843,-9.38867 19.8916,11.36621 A 19.99027,19.99027 0 0 1 121.57031,152.815 Z"
     id="path2"
     style="display:none;fill:none;stroke:none;stroke-width:0;stroke-dasharray:none" />
  <g
     id="g5"
     style="stroke:none;stroke-opacity:1"
     transform="matrix(0.93016721,0,0,0.93016721,-21.43307,-14.540992)">
    <g
       id="g6">
      <path
         id="path5"
         style="opacity:1;fill:#ffffff;fill-opacity:1;stroke:#131516;stroke-width:6.4;stroke-linejoin:miter;stroke-dasharray:none;stroke-opacity:1"
         d="m 130.86625,26.385 a 96,96 0 0 0 -96,96 96,96 0 0 0 14.55125,50.64125 L 35.200625,220 l 52.2525,-12.21937 a 96,96 0 0 0 43.413125,10.60437 96,96 0 0 0 96,-96 96,96 0 0 0 -96,-96 z" />
    </g>
    <path
       d="m 70.67486,78.913704 c 0,57.251406 46.41152,103.662986 103.66298,103.662986 2.58289,0 5.14369,-0.0943 7.67976,-0.28023 2.90992,-0.21334 4.36455,-0.31967 5.68943,-1.0821 1.09681,-0.63134 2.13679,-1.75091 2.68654,-2.8912 0.66411,-1.37638 0.66411,-2.98215 0.66411,-6.19303 v -18.8419 c 0,-2.7006 0,-4.05089 -0.44475,-5.2079 -0.39191,-1.02258 -1.02994,-1.93281 -1.85657,-2.6511 -0.93564,-0.81325 -2.20501,-1.27472 -4.74241,-2.19765 l -21.44687,-7.79881 c -2.95273,-1.07341 -4.42942,-1.61044 -5.82988,-1.51948 -1.23526,0.0802 -2.42371,0.50225 -3.43358,1.21786 -1.14498,0.81125 -1.95288,2.15819 -3.56935,4.85277 l -5.49213,9.1531 c -17.72236,-8.02618 -32.08938,-22.41194 -40.12761,-40.1276 l 9.15331,-5.492 c 2.69403,-1.61641 4.04106,-2.42465 4.85256,-3.569762 0.71562,-1.00974 1.13762,-2.198255 1.21788,-3.433317 0.091,-1.40065 -0.44609,-2.876949 -1.51951,-5.829536 l -7.79886,-21.447139 c -0.92287,-2.537736 -1.38427,-3.806638 -2.19746,-4.74248 -0.71834,-0.826696 -1.6287,-1.464323 -2.65109,-1.856906 -1.15741,-0.444413 -2.50758,-0.444413 -5.207896,-0.444413 H 81.121481 c -3.211084,0 -4.816653,0 -6.193228,0.663778 -1.14016,0.549815 -2.259454,1.590123 -2.891063,2.687078 -0.762559,1.324479 -0.869099,2.779438 -1.08218,5.689427 -0.185657,2.535596 -0.28015,5.096539 -0.28015,7.679554 z"
       stroke="#000000"
       stroke-width="13.3759"
       stroke-linecap="round"
       stroke-linejoin="round"
       id="path1-9"
       style="fill:#131516;fill-opacity:1;stroke:none;stroke-opacity:1" />
  </g>
</svg>
